<svg width="24" height="22" viewBox="0 0 24 22" fill="none" xmlns="http://www.w3.org/2000/svg">
<path d="M13.2656 5.49157C13.2656 4.09583 12.1301 2.96033 10.7344 2.96033C9.33863 2.96033 8.20312 4.09583 8.20312 5.49157C8.20312 6.88732 9.33863 8.02282 10.7344 8.02282C12.1301 8.02282 13.2656 6.88732 13.2656 5.49157ZM9.14062 5.49157C9.14062 4.61276 9.85556 3.89783 10.7344 3.89783C11.6132 3.89783 12.3281 4.61276 12.3281 5.49157C12.3281 6.37039 11.6132 7.08532 10.7344 7.08532C9.85556 7.08532 9.14062 6.37039 9.14062 5.49157Z" fill="white"/>
<path d="M6.64372 11.5527C7.24602 11.2458 7.69273 10.7227 7.90166 10.0799C8.11053 9.43698 8.05658 8.7512 7.74969 8.14895C7.4428 7.54665 6.91972 7.09994 6.27688 6.89101C5.63394 6.68209 4.9482 6.73609 4.34595 7.04298C3.74366 7.34987 3.29694 7.87295 3.08802 8.51579C2.87914 9.15868 2.93309 9.84446 3.23999 10.4467C3.54688 11.049 4.06995 11.4957 4.7128 11.7046C4.97023 11.7883 5.23447 11.8298 5.49748 11.8298C5.89138 11.8298 6.28255 11.7367 6.64372 11.5527ZM5.00249 10.813C4.59777 10.6816 4.26847 10.4003 4.07525 10.0211C3.88203 9.64196 3.84805 9.21024 3.97958 8.80553C4.11106 8.40081 4.39231 8.07151 4.77148 7.87829C4.99888 7.76242 5.24511 7.70383 5.49313 7.70383C5.65869 7.70383 5.82509 7.72998 5.98714 7.78262C6.39186 7.91411 6.72116 8.19536 6.91438 8.57453C7.10759 8.9537 7.14158 9.38542 7.01005 9.79013C6.87856 10.1949 6.59731 10.5241 6.21814 10.7174C5.83892 10.9105 5.4072 10.9445 5.00249 10.813Z" fill="white"/>
<path d="M6.00924 17.5042C6.45756 17.8299 6.97787 17.9867 7.49363 17.9867C8.27701 17.9867 9.05007 17.625 9.5447 16.9442C9.9421 16.3972 10.1027 15.7283 9.9969 15.0605C9.8911 14.3927 9.53166 13.8061 8.98468 13.4088C8.4377 13.0114 7.76884 12.8507 7.10096 12.9566C6.43318 13.0623 5.84659 13.4218 5.44923 13.9687C4.62896 15.0978 4.88016 16.6838 6.00924 17.5042ZM6.20776 14.5198C6.45793 14.1754 6.82726 13.9491 7.24768 13.8825C7.3321 13.8691 7.41652 13.8625 7.50038 13.8625C7.83413 13.8625 8.15851 13.9673 8.43371 14.1673C9.14462 14.6838 9.30277 15.6823 8.78626 16.3932C8.26974 17.1041 7.27121 17.2623 6.56031 16.7458C5.8494 16.2292 5.69124 15.2307 6.20776 14.5198Z" fill="white"/>
<path d="M13.9764 17.9866C14.4922 17.9866 15.0126 17.8298 15.4609 17.5042C16.5899 16.6838 16.8411 15.0978 16.0208 13.9687C15.6234 13.4218 15.0368 13.0623 14.3691 12.9565C13.7013 12.8508 13.0324 13.0114 12.4854 13.4087C11.9384 13.8061 11.5789 14.3927 11.4732 15.0605C11.3674 15.7282 11.528 16.3972 11.9254 16.9442C12.4201 17.6251 13.1929 17.9866 13.9764 17.9866ZM13.0364 14.1672C13.3807 13.917 13.8018 13.8158 14.2224 13.8825C14.6428 13.9491 15.0121 14.1754 15.2623 14.5198C15.7788 15.2307 15.6207 16.2292 14.9097 16.7457C14.1988 17.2622 13.2003 17.1041 12.6838 16.3932C12.1673 15.6823 12.3255 14.6837 13.0364 14.1672Z" fill="white"/>
<path d="M15.1913 6.89094C14.5484 7.09986 14.0253 7.54658 13.7185 8.14888C13.4116 8.75117 13.3577 9.43691 13.5665 10.0798C13.7755 10.7227 14.2222 11.2458 14.8245 11.5526C15.1856 11.7366 15.5768 11.8297 15.9707 11.8297C16.2337 11.8297 16.4981 11.7882 16.7554 11.7046C17.3983 11.4957 17.9214 11.049 18.2282 10.4467C18.5351 9.84439 18.5891 9.15866 18.3802 8.51577C18.1713 7.87288 17.7245 7.3498 17.1222 7.04295C16.52 6.73606 15.8342 6.68216 15.1913 6.89094ZM16.6967 7.87827C17.0758 8.07149 17.3571 8.40074 17.4886 8.8055C17.6201 9.21022 17.5861 9.64194 17.3929 10.0211C17.1997 10.4003 16.8704 10.6815 16.4657 10.813C16.0609 10.9445 15.6292 10.9106 15.2501 10.7173C14.8709 10.5241 14.5896 10.1949 14.4581 9.79011C14.3266 9.38539 14.3606 8.95367 14.5538 8.5745C14.747 8.19533 15.0763 7.91408 15.4811 7.7826C15.6431 7.72991 15.8095 7.7038 15.9751 7.7038C16.223 7.7038 16.4693 7.76239 16.6967 7.87827Z" fill="white"/>
<path d="M12.3418 11C12.3418 10.1137 11.6208 9.39258 10.7344 9.39258C9.84803 9.39258 9.12695 10.1137 9.12695 11C9.12695 11.8864 9.84803 12.6075 10.7344 12.6075C11.6208 12.6075 12.3418 11.8864 12.3418 11ZM10.0645 11C10.0645 10.6306 10.365 10.3301 10.7344 10.3301C11.1038 10.3301 11.4043 10.6306 11.4043 11C11.4043 11.3694 11.1038 11.67 10.7344 11.67C10.365 11.67 10.0645 11.3694 10.0645 11Z" fill="white"/>
<path d="M23.8627 19.7073C23.3326 19.1772 22.6279 18.8853 21.8783 18.8853C21.1287 18.8853 20.424 19.1772 19.8939 19.7073C19.1913 20.4099 18.2571 20.7969 17.2634 20.7969H15.1344C16.3078 20.2693 17.3877 19.5273 18.3247 18.5903C20.3522 16.5629 21.4688 13.8673 21.4688 11C21.4688 8.90281 20.8638 6.87102 19.7192 5.12427C19.5774 4.9077 19.2868 4.84719 19.0702 4.98908C18.8537 5.13097 18.7932 5.42155 18.9351 5.63806C19.9793 7.23172 20.5312 9.08586 20.5312 11C20.5312 16.402 16.1364 20.7969 10.7344 20.7969C5.33236 20.7969 0.9375 16.402 0.9375 11C0.9375 5.59798 5.33236 1.20312 10.7344 1.20312C12.6517 1.20312 14.5086 1.75681 16.104 2.80438C16.3204 2.9465 16.611 2.88627 16.7531 2.6698C16.8952 2.45338 16.835 2.1628 16.6185 2.02067C14.8698 0.872516 12.8351 0.265625 10.7344 0.265625C7.86713 0.265625 5.17148 1.38219 3.14405 3.40967C1.11661 5.43716 0 8.13275 0 11C0 13.8673 1.11656 16.5629 3.14405 18.5904C5.17148 20.6178 7.86713 21.7344 10.7344 21.7344H17.2634C18.5075 21.7344 19.6771 21.2499 20.5568 20.3702C20.9098 20.0172 21.3791 19.8228 21.8783 19.8228C22.3775 19.8228 22.8468 20.0172 23.1998 20.3702C23.3828 20.5532 23.6796 20.5532 23.8627 20.3702C24.0458 20.1871 24.0458 19.8903 23.8627 19.7073Z" fill="white"/>
<path d="M17.9961 4.21291C18.1194 4.21291 18.2403 4.16322 18.3275 4.07604C18.4147 3.98838 18.4648 3.86791 18.4648 3.74463C18.4648 3.62088 18.4147 3.50041 18.3275 3.41275C18.2403 3.32557 18.1194 3.27588 17.9961 3.27588C17.8728 3.27588 17.7519 3.32557 17.6647 3.41275C17.5775 3.50041 17.5273 3.62088 17.5273 3.74463C17.5273 3.86791 17.5775 3.98885 17.6647 4.07604C17.7519 4.16322 17.8728 4.21291 17.9961 4.21291Z" fill="white"/>
</svg>
