<svg width="18" height="19" viewBox="0 0 18 19" fill="none" xmlns="http://www.w3.org/2000/svg">
<path d="M12.6 0.826087C12.6 0.369852 13.0029 0 13.5 0H17.1C17.5971 0 18 0.369852 18 0.826087V4.95652C18 5.41276 17.5971 5.78261 17.1 5.78261H13.5C13.0029 5.78261 12.6 5.41276 12.6 4.95652V0.826087Z" fill="#3657CB"/>
<path d="M12.6 7.43478C12.6 6.97855 13.0029 6.6087 13.5 6.6087H17.1C17.5971 6.6087 18 6.97855 18 7.43478V11.5652C18 12.0215 17.5971 12.3913 17.1 12.3913H13.5C13.0029 12.3913 12.6 12.0215 12.6 11.5652V7.43478Z" fill="#3657CB"/>
<path d="M12.6 14.0435C12.6 13.5872 13.0029 13.2174 13.5 13.2174H17.1C17.5971 13.2174 18 13.5872 18 14.0435V18.1739C18 18.6301 17.5971 19 17.1 19H13.5C13.0029 19 12.6 18.6301 12.6 18.1739V14.0435Z" fill="#3657CB"/>
<path d="M6.3 0.826087C6.3 0.369852 6.70294 0 7.2 0H10.8C11.2971 0 11.7 0.369852 11.7 0.826087V4.95652C11.7 5.41276 11.2971 5.78261 10.8 5.78261H7.2C6.70294 5.78261 6.3 5.41276 6.3 4.95652V0.826087Z" fill="#3657CB"/>
<path d="M6.3 7.43478C6.3 6.97855 6.70294 6.6087 7.2 6.6087H10.8C11.2971 6.6087 11.7 6.97855 11.7 7.43478V11.5652C11.7 12.0215 11.2971 12.3913 10.8 12.3913H7.2C6.70294 12.3913 6.3 12.0215 6.3 11.5652V7.43478Z" fill="#3657CB"/>
<path d="M6.3 14.0435C6.3 13.5872 6.70294 13.2174 7.2 13.2174H10.8C11.2971 13.2174 11.7 13.5872 11.7 14.0435V18.1739C11.7 18.6301 11.2971 19 10.8 19H7.2C6.70294 19 6.3 18.6301 6.3 18.1739V14.0435Z" fill="#3657CB"/>
<path d="M0 0.826087C0 0.369852 0.402944 0 0.9 0H4.5C4.99706 0 5.4 0.369852 5.4 0.826087V4.95652C5.4 5.41276 4.99706 5.78261 4.5 5.78261H0.9C0.402944 5.78261 0 5.41276 0 4.95652V0.826087Z" fill="#3657CB"/>
<path d="M0 7.43478C0 6.97855 0.402944 6.6087 0.9 6.6087H4.5C4.99706 6.6087 5.4 6.97855 5.4 7.43478V11.5652C5.4 12.0215 4.99706 12.3913 4.5 12.3913H0.9C0.402944 12.3913 0 12.0215 0 11.5652V7.43478Z" fill="#3657CB"/>
<path d="M0 14.0435C0 13.5872 0.402944 13.2174 0.9 13.2174H4.5C4.99706 13.2174 5.4 13.5872 5.4 14.0435V18.1739C5.4 18.6301 4.99706 19 4.5 19H0.9C0.402944 19 0 18.6301 0 18.1739V14.0435Z" fill="#3657CB"/>
</svg>
