<svg width="23" height="19" viewBox="0 0 23 19" fill="none" xmlns="http://www.w3.org/2000/svg">
<path d="M0 14.5294C0 13.9122 0.367766 13.4118 0.821429 13.4118H5.75C6.20366 13.4118 6.57143 13.9122 6.57143 14.5294V17.8824C6.57143 18.4996 6.20366 19 5.75 19H0.821429C0.367766 19 0 18.4996 0 17.8824V14.5294Z" fill="#3657CB"/>
<path d="M7.39286 14.5294C7.39286 13.9122 7.76062 13.4118 8.21429 13.4118H22.1786C22.6322 13.4118 23 13.9122 23 14.5294V17.8824C23 18.4996 22.6322 19 22.1786 19H8.21429C7.76062 19 7.39286 18.4996 7.39286 17.8824V14.5294Z" fill="#3657CB"/>
<path d="M0 7.82353C0 7.20627 0.367766 6.70588 0.821429 6.70588H5.75C6.20366 6.70588 6.57143 7.20627 6.57143 7.82353V11.1765C6.57143 11.7937 6.20366 12.2941 5.75 12.2941H0.821429C0.367766 12.2941 0 11.7937 0 11.1765V7.82353Z" fill="#3657CB"/>
<path d="M7.39286 7.82353C7.39286 7.20627 7.76062 6.70588 8.21429 6.70588H22.1786C22.6322 6.70588 23 7.20627 23 7.82353V11.1765C23 11.7937 22.6322 12.2941 22.1786 12.2941H8.21429C7.76062 12.2941 7.39286 11.7937 7.39286 11.1765V7.82353Z" fill="#3657CB"/>
<path d="M0 1.11765C0 0.500388 0.367766 0 0.821429 0H5.75C6.20366 0 6.57143 0.500388 6.57143 1.11765V4.47059C6.57143 5.08785 6.20366 5.58824 5.75 5.58824H0.821429C0.367766 5.58824 0 5.08785 0 4.47059V1.11765Z" fill="#3657CB"/>
<path d="M7.39286 1.11765C7.39286 0.500388 7.76062 0 8.21429 0H22.1786C22.6322 0 23 0.500388 23 1.11765V4.47059C23 5.08785 22.6322 5.58824 22.1786 5.58824H8.21429C7.76062 5.58824 7.39286 5.08785 7.39286 4.47059V1.11765Z" fill="#3657CB"/>
</svg>
